HIERARCHY
ROOT Hips
{
	OFFSET 0.00000 0.00000 0.00000
	CHANNELS 6 Xposition Yposition Zposition Zrotation Yrotation Xrotation 
	JOINT LHipJoint
	{
		OFFSET 0 0 0
		CHANNELS 3 Zrotation Yrotation Xrotation
		JOINT LeftHip
		{
			OFFSET 1.77779 -1.88989 0.48267
			CHANNELS 3 Zrotation Yrotation Xrotation
			JOINT LeftKnee
			{
				OFFSET 2.53442 -6.96327 0.00000
				CHANNELS 3 Zrotation Yrotation Xrotation
				JOINT LeftAnkle
				{
					OFFSET 2.71068 -7.44755 0.00000
					CHANNELS 3 Zrotation Yrotation Xrotation
					JOINT LeftToe
					{
						OFFSET 0.17992 -0.49431 2.22524
						CHANNELS 3 Zrotation Yrotation Xrotation
						End Site
						{
							OFFSET 0.00000 -0.00000 1.14687
						}
					}
				}
			}
		}
	}
	JOINT RHipJoint
	{
		OFFSET 0 0 0
		CHANNELS 3 Zrotation Yrotation Xrotation
		JOINT RightHip
		{
			OFFSET -1.58469 -1.88989 0.48267
			CHANNELS 3 Zrotation Yrotation Xrotation
			JOINT RightKnee
			{
				OFFSET -2.60386 -7.15404 0.00000
				CHANNELS 3 Zrotation Yrotation Xrotation
				JOINT RightAnkle
				{
					OFFSET -2.73334 -7.50979 0.00000
					CHANNELS 3 Zrotation Yrotation Xrotation
					JOINT RightToe
					{
						OFFSET -0.25618 -0.70384 2.21822
						CHANNELS 3 Zrotation Yrotation Xrotation
						End Site
						{
							OFFSET -0.00000 -0.00000 1.16381
						}
					}
				}
			}
		}
	}
	JOINT lowerback
	{
		OFFSET 0 0 0
		CHANNELS 3 Zrotation Yrotation Xrotation
		JOINT Chest
		{
			OFFSET 0.03410 2.01612 -0.22230
			CHANNELS 3 Zrotation Yrotation Xrotation
			JOINT Chest2
			{
				OFFSET 0.03465 2.03012 0.00937
				CHANNELS 3 Zrotation Yrotation Xrotation
				JOINT lowerneck
				{
					OFFSET 0 0 0
					CHANNELS 3 Zrotation Yrotation Xrotation
					JOINT Neck
					{
						OFFSET -0.00219 1.70459 0.20857
						CHANNELS 3 Zrotation Yrotation Xrotation
						JOINT Head
						{
							OFFSET 0.02518 1.72339 -0.22179
							CHANNELS 3 Zrotation Yrotation Xrotation
							End Site
							{
								OFFSET 0.00282 1.74122 -0.09823
							}
						}
					}
				}
				JOINT LeftCollar
				{
					OFFSET 0 0 0
					CHANNELS 3 Zrotation Yrotation Xrotation
					JOINT LeftShoulder
					{
						OFFSET 3.36358 1.00547 -0.37661
CHANNELS 3 Zrotation Xrotation Yrotation
						JOINT LeftElbow
						{
OFFSET 0 -5.065070 0.000000
CHANNELS 3 Zrotation Xrotation Yrotation
							JOINT LeftWrist
							{
OFFSET 0 -3.601960 0.000000
CHANNELS 3 Zrotation Xrotation Yrotation
								JOINT lhand
								{
									OFFSET 0 0 0
CHANNELS 3 Zrotation Xrotation Yrotation
									JOINT LFingers
									{
OFFSET 0 -0.450350 0.000000
CHANNELS 3 Zrotation Xrotation Yrotation
										End Site
										{
OFFSET 0 -0.363080 0.000000
										}
									}
								}
								JOINT LThumb
								{
OFFSET 0 0.000000 0.000000
CHANNELS 3 Zrotation Xrotation Yrotation
									End Site
									{
OFFSET 0 -0.368620 0.368620
									}
								}
							}
						}
					}
				}
				JOINT RightCollar
				{
					OFFSET 0 0 0
					CHANNELS 3 Zrotation Yrotation Xrotation
					JOINT RightShoulder
					{
						OFFSET -3.50159 0.80383 -0.71526
CHANNELS 3 Zrotation Xrotation Yrotation
						JOINT RightElbow
						{
OFFSET 0 -5.363940 0.000000
CHANNELS 3 Zrotation Xrotation Yrotation
							JOINT RightWrist
							{
OFFSET 0 -3.580350 0.000000
CHANNELS 3 Zrotation Xrotation Yrotation
								JOINT rhand
								{
									OFFSET 0 0 0
CHANNELS 3 Zrotation Xrotation Yrotation
									JOINT RFingers
									{
OFFSET 0 -0.663750 0.000000
CHANNELS 3 Zrotation Xrotation Yrotation
										End Site
										{
OFFSET 0 -0.535130 0.000000
										}
									}
								}
								JOINT RThumb
								{
OFFSET 0 0.000000 0.000000
CHANNELS 3 Zrotation Xrotation Yrotation
									End Site
									{
OFFSET 0 -0.543300 0.543300
									}
								}
							}
						}
					}
				}
			}
		}
	}
}
MOTION
Frames: 4
Frame Time: 0.008333333333333333
0.579506 17.789852 5.099307 1.643048 1.903595 -1.867452 0.000000 0.000000 0.000000 -25.846270 3.482120 15.156454 0.653849 5.171047 14.397254 0.346359 -12.127735 -12.648292 0.015137 -0.768471 -2.112056 0.000000 0.000000 0.000000 17.844464 11.899158 -26.189180 -1.259578 -7.111844 20.048213 -0.265508 -5.926496 -13.695161 -0.017018 0.835973 -2.297668 -4.356779 -1.831081 10.491914 1.930822 -2.855077 -0.036118 4.918033 -1.258349 -5.615342 -1.980329 -2.679579 -17.742444 -0.929732 -2.955249 21.241202 -0.392150 -1.645117 9.677031 0.000000 0.000000 0.000000 10.168669 -10.246864 -33.630623 17.981852 -28.133937 4.540680 32.321033 1.410154 -17.730174 0.000000 0.000000 0.000000 -7.125000 0.000000 0.000000 4.351296 50.648389 -0.595542 0.000000 0.000000 0.000000 -0.560636 2.833916 4.265388 -12.937380 -21.195277 -2.430609 -16.842681 -0.223983 -23.938301 0.000000 0.000000 0.000000 7.125000 0.000000 0.000000 7.666013 5.285412 6.991267
0.568507 17.780793 5.232071 1.556200 2.037683 -1.971219 0.000000 0.000000 0.000000 -25.678785 3.396488 15.480759 0.708253 5.375756 14.984167 0.307259 -12.565358 -12.433982 0.023571 -0.946270 -2.601331 0.000000 0.000000 0.000000 18.121791 11.737786 -26.124085 -1.367629 -7.397762 20.900879 -0.301498 -5.475912 -13.837463 -0.025038 0.996338 -2.738959 -4.242222 -1.859122 10.417431 1.922280 -2.875402 0.023574 4.840736 -1.276264 -5.513821 -2.033079 -2.680528 -17.643421 -0.818380 -2.971144 21.069324 -0.343594 -1.643291 9.601005 0.000000 0.000000 0.000000 10.165991 -10.151220 -33.697648 18.099750 -28.284499 4.596477 33.148092 0.142345 -15.605220 0.000000 0.000000 0.000000 -7.125000 0.000000 0.000000 5.318545 48.336313 -0.397870 0.000000 0.000000 0.000000 -0.485420 2.852892 3.913733 -12.836317 -21.046703 -2.394262 -17.248760 -0.545567 -25.603035 0.000000 0.000000 0.000000 7.125000 0.000000 0.000000 7.546303 3.531266 7.124831
0.556215 17.774152 5.364185 1.433842 2.167843 -2.057659 0.000000 0.000000 0.000000 -25.467827 3.327153 15.825136 0.766744 5.590625 15.601440 0.282365 -12.865724 -12.314437 0.039278 -1.278805 -3.516341 0.000000 0.000000 0.000000 18.430883 11.609758 -26.030501 -1.472674 -7.667514 21.709019 -0.334343 -4.958238 -13.884275 -0.038223 1.261234 -3.467918 -4.107296 -1.889456 10.338353 1.930095 -2.895583 0.062358 4.769637 -1.293338 -5.432114 -2.110078 -2.680130 -17.522484 -0.695435 -2.981642 20.912605 -0.286161 -1.639696 9.526959 0.000000 0.000000 0.000000 10.152526 -10.016791 -33.750149 18.236765 -28.459155 4.661510 34.014351 -1.146679 -13.445324 0.000000 0.000000 0.000000 -7.125000 0.000000 0.000000 6.281597 45.971133 -0.147969 0.000000 0.000000 0.000000 -0.424585 2.851693 3.520616 -12.708268 -20.857981 -2.348580 -17.662595 -0.687836 -26.888185 0.000000 0.000000 0.000000 7.125000 0.000000 0.000000 7.401318 2.162912 7.177533
0.541381 17.764753 5.493919 1.347779 2.247321 -2.071022 0.000000 0.000000 0.000000 -25.294678 3.236614 16.009731 0.824801 5.792675 16.184635 0.250331 -12.961953 -12.021912 0.044329 -1.357387 -3.732778 0.000000 0.000000 0.000000 18.663816 11.644542 -25.911061 -1.564683 -7.891559 22.386206 -0.345661 -4.371654 -13.592645 -0.045512 1.374408 -3.779625 -4.104675 -1.929419 10.201074 1.974853 -2.940917 0.088701 4.813372 -1.319554 -5.319899 -2.191729 -2.684223 -17.576257 -0.621009 -2.980619 20.914587 -0.247605 -1.637075 9.540322 0.000000 0.000000 0.000000 10.107257 -9.892748 -33.640108 18.379351 -28.639977 4.729734 34.490512 -1.900211 -12.315953 0.000000 0.000000 0.000000 -7.125000 0.000000 0.000000 6.742476 44.706146 0.056063 0.000000 0.000000 0.000000 -0.456300 2.688710 3.152003 -12.466575 -20.500173 -2.263412 -17.358114 -0.136290 -27.001039 0.000000 0.000000 0.000000 7.125000 0.000000 0.000000 7.593585 2.098077 7.376386
